<?xml version="1.0" standalone="no"?>
<!DOCTYPE svg PUBLIC "-//W3C//DTD SVG 20010904//EN"
 "http://www.w3.org/TR/2001/REC-SVG-20010904/DTD/svg10.dtd">
<svg version="1.0" xmlns="http://www.w3.org/2000/svg"
 width="700.000000pt" height="700.000000pt" viewBox="0 0 700.000000 700.000000"
 preserveAspectRatio="xMidYMid meet">
<metadata>
Created by potrace 1.11, written by Peter Selinger 2001-2013
</metadata>
<g transform="translate(0.000000,700.000000) scale(0.100000,-0.100000)"
fill="#000000" stroke="none">
<path d="M3785 6140 c-3 -5 -15 -10 -26 -10 -10 0 -19 -4 -19 -8 0 -5 -11 -15
-25 -22 -13 -7 -22 -17 -19 -22 3 -4 -2 -8 -10 -8 -9 0 -16 -9 -16 -21 0 -11
-4 -17 -10 -14 -5 3 -10 -3 -10 -14 0 -12 -5 -21 -11 -21 -8 0 -8 -4 0 -14 7
-8 8 -17 3 -20 -12 -7 -12 -116 0 -116 11 0 5 -46 -7 -57 -4 -4 -5 -2 -1 5 9
15 -20 17 -29 2 -4 -7 -13 -6 -27 1 -15 8 -19 8 -14 0 4 -6 2 -11 -4 -11 -6 0
-18 -7 -27 -15 -8 -8 -20 -12 -26 -8 -7 3 -9 3 -5 -2 4 -4 1 -14 -7 -22 -8 -8
-18 -26 -22 -41 -3 -15 -11 -30 -17 -34 -7 -5 -6 -8 3 -8 11 0 11 -3 0 -17
-12 -15 -12 -16 1 -8 13 8 13 7 1 -8 -7 -9 -9 -17 -4 -17 5 0 10 -12 11 -26 1
-15 8 -34 15 -42 10 -13 9 -14 -1 -8 -11 7 -11 4 -1 -12 7 -12 17 -19 21 -16
4 3 5 -1 2 -9 -3 -8 6 -21 21 -31 14 -9 23 -21 20 -26 -4 -6 1 -10 9 -10 9 0
16 -4 16 -10 0 -5 9 -10 21 -10 12 0 17 -4 14 -11 -4 -6 0 -9 11 -7 12 2 18
-2 16 -10 -1 -8 2 -11 7 -8 5 4 16 -3 24 -14 7 -11 17 -17 20 -13 4 3 7 -2 7
-12 0 -10 9 -26 21 -36 11 -9 20 -19 19 -21 -4 -9 16 -45 32 -59 10 -9 15 -19
12 -22 -3 -3 6 -13 20 -22 14 -10 26 -22 26 -29 0 -6 9 -17 21 -24 12 -7 18
-16 15 -19 -3 -3 2 -11 11 -18 15 -11 14 -15 -7 -51 -13 -21 -32 -49 -43 -61
-20 -22 -21 -22 -40 -5 -15 12 -18 13 -12 2 6 -11 3 -10 -12 3 -11 9 -27 17
-37 17 -10 0 -24 6 -32 14 -8 8 -23 12 -35 9 -15 -4 -20 -3 -15 5 5 8 -3 12
-24 12 -18 0 -29 4 -25 10 5 9 -23 15 -47 11 -5 0 -8 4 -8 10 0 8 -5 7 -16 -1
-12 -11 -15 -11 -12 1 2 9 -4 13 -14 11 -10 -2 -18 2 -18 8 0 5 -5 10 -11 10
-5 0 -7 -6 -3 -12 6 -10 4 -10 -7 0 -7 6 -24 12 -37 12 -15 0 -21 4 -16 12 5
7 3 8 -7 2 -19 -12 -41 -11 -58 1 -11 7 -13 7 -7 -2 5 -9 -1 -13 -23 -13 -16
0 -33 -5 -37 -11 -4 -8 -9 -7 -15 2 -6 10 -9 11 -9 2 0 -7 -7 -13 -15 -13 -8
0 -15 -6 -15 -12 0 -9 -4 -8 -10 2 -6 10 -10 11 -10 3 0 -7 -7 -13 -15 -13 -8
0 -15 -6 -15 -12 0 -9 -3 -8 -10 2 -7 12 -12 12 -22 2 -6 -6 -17 -12 -24 -12
-6 0 -69 87 -140 193 -70 105 -138 206 -151 224 l-24 31 -112 -30 c-62 -16
-119 -31 -127 -33 -31 -7 -368 -94 -442 -115 -43 -11 -85 -23 -95 -25 -10 -1
-184 -46 -388 -100 -203 -53 -378 -98 -387 -100 -9 -2 -61 -16 -115 -30 -54
-15 -102 -28 -108 -29 -5 -1 -36 -9 -68 -16 -47 -11 -58 -17 -54 -31 4 -16
252 -408 322 -509 17 -25 34 -52 38 -60 3 -8 36 -59 72 -113 62 -93 64 -97 37
-91 -15 4 -87 22 -160 41 -73 19 -141 36 -150 38 -9 2 -62 16 -117 30 -55 15
-107 28 -115 30 -129 30 -139 30 -93 -2 15 -11 134 -80 263 -153 129 -73 255
-145 280 -159 25 -14 112 -64 193 -109 106 -61 148 -90 152 -105 2 -12 7 -80
10 -152 11 -252 24 -510 30 -615 3 -47 7 -141 10 -210 3 -69 7 -144 9 -168 2
-23 -1 -45 -6 -48 -5 -3 -5 -11 1 -17 5 -7 8 -31 8 -55 -1 -23 0 -42 3 -42 3
0 6 -11 6 -25 1 -16 -2 -22 -10 -18 -8 5 -8 3 0 -8 6 -8 11 -21 11 -29 1 -69
15 -315 18 -318 2 -2 0 -15 -6 -29 -5 -13 -5 -22 0 -19 5 3 9 -22 10 -57 1
-34 3 -77 6 -95 3 -24 1 -31 -8 -26 -14 9 22 -36 43 -52 8 -7 20 -9 28 -6 11
4 13 -1 8 -19 -3 -13 -3 -18 0 -11 3 7 15 17 26 23 18 10 20 9 15 -5 -4 -9 -2
-16 4 -16 6 0 8 -4 5 -8 -3 -5 1 -9 9 -9 11 0 12 4 3 14 -6 7 -8 16 -4 20 3 3
6 1 6 -6 0 -8 8 -10 23 -6 16 5 18 4 8 -3 -11 -8 -10 -14 9 -33 21 -22 22 -23
11 -2 -8 16 -8 22 3 26 23 9 41 -20 26 -38 -11 -13 -10 -14 3 -9 9 3 18 11 20
17 2 7 3 -1 1 -18 l-3 -30 15 28 c8 15 20 27 27 27 8 0 7 -4 -3 -11 -12 -9
-11 -10 8 -6 12 3 20 1 16 -4 -3 -5 0 -9 6 -9 6 0 8 -4 5 -10 -3 -5 -1 -10 4
-10 6 0 11 5 11 10 0 6 5 10 11 10 5 0 7 -5 4 -10 -3 -6 -1 -10 5 -10 6 0 8
-6 4 -12 -4 -7 3 -4 16 7 l24 20 -16 -26 c-15 -24 -15 -26 0 -26 10 0 23 4 30
10 18 14 27 0 12 -18 -11 -13 -10 -14 4 -9 9 3 16 14 17 23 0 10 2 11 6 4 2
-7 14 -13 24 -13 11 0 17 -4 14 -10 -3 -5 0 -7 8 -4 8 3 18 1 22 -5 4 -8 13
-8 28 1 21 11 21 10 7 -7 -14 -17 -13 -18 2 -12 10 3 20 2 24 -4 4 -6 12 -5
22 3 10 8 13 9 9 1 -4 -6 -3 -14 2 -17 5 -4 12 -2 16 4 4 6 11 8 16 4 5 -3 7
-10 3 -15 -3 -5 -10 -6 -16 -3 -6 4 -8 2 -5 -3 10 -17 46 -23 40 -8 -6 16 19
14 39 -3 8 -6 19 -8 24 -4 4 4 3 0 -4 -10 -10 -12 -10 -18 -1 -24 8 -4 9 -3 5
4 -8 13 4 15 28 6 8 -3 12 -12 10 -19 -3 -7 0 -16 7 -21 8 -4 10 -3 5 4 -4 7
-2 20 4 29 10 17 10 17 8 -1 -2 -11 5 -22 20 -27 17 -6 21 -6 16 3 -5 8 -2 9
12 4 10 -5 24 -9 31 -9 7 0 10 -4 7 -9 -3 -4 7 -8 21 -8 18 0 24 -4 19 -12 -5
-8 0 -7 11 2 11 9 16 10 11 3 -4 -7 -2 -13 3 -13 18 0 48 -35 42 -51 -2 -8 8
0 22 16 17 19 25 23 21 11 -6 -17 -5 -17 17 -6 20 11 22 11 13 -1 -16 -21 -26
-51 -14 -44 6 3 10 12 10 20 0 7 8 16 17 19 10 4 14 4 11 0 -10 -9 10 -44 25
-44 7 0 6 4 -3 10 -13 8 -13 11 -1 22 8 7 11 8 8 2 -8 -13 30 -32 60 -29 12 1
20 -2 17 -7 -4 -5 -12 -7 -20 -4 -7 3 -16 1 -18 -3 -3 -5 7 -8 22 -9 46 0 53
-2 48 -11 -4 -5 3 -7 15 -4 16 4 17 8 7 14 -9 6 -9 9 -1 9 21 0 24 -18 6 -30
-15 -8 -12 -9 11 -4 26 6 28 5 22 -12 -12 -29 -16 -58 -8 -50 7 7 8 11 11 39
1 8 4 7 11 -3 5 -8 10 -10 10 -3 0 11 45 11 57 -1 3 -3 13 0 21 7 13 9 14 9 8
0 -4 -7 -2 -13 3 -13 6 0 11 -8 11 -17 1 -16 2 -16 15 1 8 11 15 14 15 8 0 -7
6 -12 14 -12 8 0 18 -9 21 -20 3 -11 11 -20 17 -20 6 0 6 6 -2 15 -7 9 -10 18
-6 22 3 3 6 1 6 -5 0 -7 6 -12 14 -12 8 0 18 -5 22 -12 4 -7 3 -8 -4 -4 -8 5
-10 2 -6 -8 7 -19 20 -21 30 -4 4 6 3 8 -2 5 -5 -3 -10 3 -10 14 0 19 1 18 18
-3 10 -13 18 -17 18 -10 0 8 5 10 12 6 8 -5 5 -11 -10 -17 -20 -9 -32 -30 -14
-25 4 1 18 -4 32 -11 l25 -12 -25 20 c-24 20 -24 21 -4 21 12 0 24 -7 28 -15
3 -8 12 -12 21 -9 8 3 12 11 9 16 -4 6 5 2 20 -7 23 -16 39 -34 17 -21 -5 4
-7 -4 -3 -16 5 -21 5 -21 13 -1 4 12 13 24 20 29 7 4 10 3 6 -3 -8 -12 50 -36
64 -27 5 3 6 -2 2 -12 -5 -14 -3 -15 17 -4 18 10 21 10 14 -1 -11 -19 -13 -49
-2 -43 5 4 7 12 4 19 -2 7 4 15 15 18 16 4 18 3 9 -8 -8 -9 -6 -14 5 -19 9 -3
13 -2 10 3 -3 5 0 13 6 17 8 4 9 3 5 -4 -4 -7 -2 -12 4 -12 6 0 8 -6 4 -12 -4
-7 3 -4 15 7 12 11 22 15 21 10 -2 -6 -1 -21 0 -35 2 -18 4 -20 7 -7 4 16 13
20 31 15 4 -2 6 -6 5 -10 -2 -5 4 -8 13 -8 9 0 12 5 8 12 -4 7 -3 8 5 4 6 -4
9 -12 5 -17 -3 -6 5 -8 20 -5 18 3 24 1 20 -6 -5 -7 0 -9 14 -6 22 6 35 -4 38
-30 2 -8 6 -17 10 -20 4 -4 4 1 1 11 -4 9 -3 17 2 17 16 0 20 -13 10 -34 -10
-20 -9 -20 5 -3 8 11 12 26 10 35 -3 10 1 6 9 -8 9 -14 13 -29 10 -34 -4 -5
-1 -6 6 -2 6 4 9 12 6 17 -4 5 1 9 9 9 8 0 18 -5 22 -11 3 -6 17 -9 30 -6 20
3 22 2 13 -10 -10 -11 -8 -12 14 -4 22 9 28 7 36 -8 6 -10 7 -22 3 -26 -4 -5
-2 -5 5 -1 7 4 10 13 7 21 -4 8 1 18 10 21 9 3 13 11 9 18 -4 6 1 5 10 -3 15
-12 17 -11 17 2 0 10 7 15 20 12 11 -2 19 1 17 7 -1 6 8 17 20 23 13 7 20 16
15 21 -4 4 2 2 12 -6 13 -10 17 -10 12 -3 -4 8 -2 13 4 13 6 0 9 4 6 8 -2 4 4
9 15 9 12 1 17 -3 13 -9 -4 -6 -2 -8 4 -4 6 3 9 15 7 26 -3 14 1 17 12 13 10
-4 14 -2 10 4 -3 5 0 10 8 10 7 0 12 -8 10 -19 -2 -10 0 -16 5 -13 4 3 7 16 6
29 -2 18 1 23 12 18 11 -4 13 -1 8 9 -4 8 0 5 10 -6 12 -15 15 -16 11 -3 -3 9
-3 19 0 22 10 9 33 -15 26 -27 -4 -6 -1 -7 6 -2 9 5 10 10 2 18 -15 15 -14 30
1 21 7 -5 9 -2 5 8 -4 12 0 15 19 13 17 -2 24 3 24 16 0 10 5 21 12 25 7 4 8
3 4 -4 -11 -18 3 -14 31 8 14 11 29 17 34 14 5 -3 9 -2 8 3 -5 29 2 36 17 17
8 -10 13 -14 10 -9 -2 6 -1 17 4 25 9 15 13 16 45 19 8 0 15 6 15 12 0 5 -5 7
-12 3 -7 -4 -8 -3 -4 5 4 6 12 9 17 6 11 -7 52 19 43 28 -8 7 18 3 32 -6 7 -4
10 3 8 21 -2 24 -1 25 10 10 7 -10 16 -15 19 -11 4 3 2 12 -5 20 -9 11 -8 13
3 11 8 -2 18 -7 22 -13 5 -6 7 0 4 13 -3 13 -1 20 5 16 5 -3 19 2 30 13 12 10
19 13 15 7 -3 -6 0 -11 7 -11 8 0 12 7 8 15 -4 11 -1 13 8 7 10 -6 12 -4 7 8
-4 11 -2 14 9 10 7 -3 14 0 14 6 0 6 7 11 15 11 8 0 15 4 15 9 0 6 9 8 20 6
11 -2 23 1 26 7 4 6 3 8 -3 5 -5 -3 -10 0 -10 7 0 8 6 12 12 9 7 -2 19 3 28
11 9 9 20 16 26 16 6 0 11 4 11 9 0 5 11 12 25 15 16 4 23 11 19 18 -4 6 -3 8
3 5 11 -7 66 27 57 36 -4 3 3 5 15 2 19 -4 25 4 22 30 -1 6 5 2 12 -7 18 -23
25 -23 23 -1 0 12 7 19 22 21 12 2 22 8 22 13 0 6 -5 7 -12 3 -7 -4 -8 -3 -4
4 4 6 14 8 23 5 12 -5 14 -3 8 8 -8 12 -6 12 8 0 15 -12 17 -11 17 9 0 20 2
21 17 9 12 -10 14 -10 9 -1 -4 7 -1 15 8 18 9 3 13 11 9 18 -4 6 1 5 10 -3 9
-7 14 -18 10 -25 -4 -6 1 -5 10 3 18 14 23 26 8 16 -6 -3 -9 3 -8 14 1 15 4
17 14 9 9 -7 13 -7 13 1 0 6 7 11 16 11 9 0 12 -5 8 -12 -4 -6 -3 -8 4 -5 5 4
8 17 5 30 -5 22 -5 22 10 2 16 -20 16 -20 10 3 -4 17 -2 21 10 16 8 -3 18 0
23 7 5 8 3 10 -6 4 -9 -5 -11 -4 -6 4 4 6 12 9 17 6 5 -4 12 0 15 9 3 8 13 17
21 20 14 6 14 4 2 -11 -12 -16 -12 -17 2 -6 9 7 18 10 22 7 3 -3 3 5 0 18 -4
18 -3 20 6 8 7 -10 11 -11 11 -2 0 6 7 12 16 12 9 0 12 5 8 12 -4 7 -3 8 5 4
6 -4 14 -1 17 7 3 9 16 14 30 12 18 -2 22 1 14 10 -14 17 -1 26 21 15 15 -8
17 -7 14 8 -3 15 2 18 21 16 22 -2 23 0 12 14 -7 9 -8 13 -3 10 20 -12 30 19
31 102 1 47 4 141 8 210 7 128 12 236 21 420 3 58 7 143 10 190 2 47 7 137 9
200 11 228 16 336 21 405 2 39 7 133 10 210 4 77 9 149 12 160 6 21 23 38 123
125 74 64 84 73 169 148 36 31 69 62 75 67 6 6 101 89 211 185 347 303 350
306 339 312 -5 3 -137 -50 -294 -117 -157 -67 -286 -121 -288 -120 -2 2 54 96
123 211 69 114 122 211 118 214 -7 7 -157 35 -243 46 -19 2 -55 8 -80 14 -25
5 -153 28 -285 50 -132 22 -251 42 -265 45 -41 7 -153 26 -180 30 -14 2 -90
15 -170 29 -124 22 -415 71 -530 91 -94 15 -140 27 -135 35 3 5 2 10 -2 12
-11 5 -56 88 -47 88 4 0 -3 8 -14 19 -12 10 -19 21 -15 25 3 3 2 6 -4 6 -6 0
-16 14 -23 30 -7 17 -17 30 -22 30 -5 0 -6 5 -3 10 3 6 1 10 -5 10 -6 0 -9 4
-6 8 3 5 -4 15 -15 22 -10 8 -19 22 -19 32 0 10 -4 18 -10 18 -5 0 -10 7 -10
15 0 9 -7 18 -15 21 -8 4 -12 10 -9 15 3 5 0 9 -5 9 -6 0 -11 9 -11 20 0 11
-4 20 -10 20 -5 0 -10 9 -10 20 0 11 -5 20 -11 20 -5 0 -7 5 -4 10 3 6 2 10
-3 10 -5 0 -12 8 -15 18 -8 23 -39 74 -57 92 -17 17 -59 87 -67 113 -3 9 -9
17 -14 17 -5 0 -9 7 -9 16 0 8 -4 12 -10 9 -5 -3 -10 -2 -10 4 0 17 -61 71
-81 71 -10 0 -19 4 -19 9 0 10 -26 9 -36 -2 -4 -4 -12 -7 -18 -7 -6 0 -4 5 4
10 9 6 10 10 3 10 -6 0 -15 -4 -18 -10z m-340 -1522 c14 -6 25 -15 25 -20 0
-5 5 -6 10 -3 6 3 10 0 10 -7 0 -8 9 -20 19 -28 20 -13 20 -14 -1 -42 -11 -16
-21 -36 -23 -46 -2 -9 -4 -18 -4 -20 -1 -4 -111 160 -111 165 0 2 4 2 8 -1 4
-2 14 -1 22 5 19 11 14 11 45 -3z m-1667 -2777 c11 -7 10 -9 -3 -14 -9 -4 -14
-3 -10 2 3 5 -1 12 -7 14 -7 3 -8 6 -3 6 6 0 16 -3 23 -8z m342 -146 c-7 -8
-18 -15 -24 -15 -6 0 -2 7 8 15 25 19 32 19 16 0z m593 -222 c-3 -6 -11 -9
-19 -6 -20 7 -17 19 5 19 11 0 17 -6 14 -13z m311 -111 c3 -5 -1 -9 -9 -9 -8
0 -15 4 -15 9 0 4 4 8 9 8 6 0 12 -4 15 -8z"/>
<path d="M1476 2313 c-6 -14 -5 -15 5 -6 7 7 10 15 7 18 -3 3 -9 -2 -12 -12z"/>
<path d="M1910 1770 c0 -5 5 -10 11 -10 5 0 7 5 4 10 -3 6 -8 10 -11 10 -2 0
-4 -4 -4 -10z"/>
<path d="M5156 1727 c3 -10 9 -15 12 -12 3 3 0 11 -7 18 -10 9 -11 8 -5 -6z"/>
<path d="M1884 1722 c4 -3 14 -7 22 -8 9 -1 13 0 10 4 -4 3 -14 7 -22 8 -9 1
-13 0 -10 -4z"/>
<path d="M1975 1721 c-3 -5 0 -13 6 -17 7 -4 9 -3 5 4 -3 5 0 13 6 15 9 4 10
6 1 6 -6 1 -14 -3 -18 -8z"/>
<path d="M1736 1698 c3 -5 10 -6 15 -3 13 9 11 12 -6 12 -8 0 -12 -4 -9 -9z"/>
<path d="M1776 1702 c-3 -5 1 -9 9 -9 8 0 12 4 9 9 -3 4 -7 8 -9 8 -2 0 -6 -4
-9 -8z"/>
<path d="M1953 1686 c0 -15 22 -15 34 0 4 5 4 6 -1 2 -5 -4 -14 -3 -21 2 -8 7
-12 5 -12 -4z"/>
<path d="M2030 1696 c0 -2 8 -10 18 -17 15 -13 16 -12 3 4 -13 16 -21 21 -21
13z"/>
<path d="M1895 1680 c3 -5 8 -10 11 -10 2 0 4 5 4 10 0 6 -5 10 -11 10 -5 0
-7 -4 -4 -10z"/>
<path d="M5110 1681 c0 -6 4 -13 10 -16 6 -3 7 1 4 9 -7 18 -14 21 -14 7z"/>
<path d="M1770 1659 c0 -5 5 -7 10 -4 6 3 10 8 10 11 0 2 -4 4 -10 4 -5 0 -10
-5 -10 -11z"/>
<path d="M5055 1660 c3 -5 8 -10 11 -10 2 0 4 5 4 10 0 6 -5 10 -11 10 -5 0
-7 -4 -4 -10z"/>
<path d="M1896 1647 c3 -10 9 -15 12 -12 3 3 0 11 -7 18 -10 9 -11 8 -5 -6z"/>
<path d="M2054 1640 c0 -13 4 -16 10 -10 7 7 7 13 0 20 -6 6 -10 3 -10 -10z"/>
<path d="M1930 1639 c0 -5 5 -7 10 -4 6 3 10 8 10 11 0 2 -4 4 -10 4 -5 0 -10
-5 -10 -11z"/>
<path d="M2200 1640 c-9 -6 -10 -10 -3 -10 6 0 15 5 18 10 8 12 4 12 -15 0z"/>
<path d="M5006 1638 c3 -5 10 -6 15 -3 13 9 11 12 -6 12 -8 0 -12 -4 -9 -9z"/>
<path d="M1775 1620 c3 -5 8 -10 11 -10 2 0 4 5 4 10 0 6 -5 10 -11 10 -5 0
-7 -4 -4 -10z"/>
<path d="M1810 1620 c0 -5 5 -10 11 -10 5 0 7 5 4 10 -3 6 -8 10 -11 10 -2 0
-4 -4 -4 -10z"/>
<path d="M2144 1622 c4 -3 14 -7 22 -8 9 -1 13 0 10 4 -4 3 -14 7 -22 8 -9 1
-13 0 -10 -4z"/>
<path d="M2266 1622 c-3 -5 1 -9 9 -9 8 0 12 4 9 9 -3 4 -7 8 -9 8 -2 0 -6 -4
-9 -8z"/>
<path d="M1875 1611 c-3 -5 -2 -12 3 -15 5 -3 9 1 9 9 0 17 -3 19 -12 6z"/>
<path d="M2300 1613 c0 -6 5 -15 10 -18 6 -4 8 -10 5 -15 -3 -4 3 -14 12 -21
15 -12 16 -12 8 1 -6 8 -10 17 -10 20 -1 12 -24 44 -25 33z"/>
<path d="M1995 1601 c-3 -5 -2 -12 3 -15 5 -3 9 1 9 9 0 17 -3 19 -12 6z"/>
<path d="M2114 1595 c3 -23 12 -26 13 -5 1 11 -2 20 -7 20 -4 0 -7 -7 -6 -15z"/>
<path d="M2236 1602 c-3 -5 1 -9 9 -9 8 0 12 4 9 9 -3 4 -7 8 -9 8 -2 0 -6 -4
-9 -8z"/>
<path d="M4916 1593 c-6 -14 -5 -15 5 -6 7 7 10 15 7 18 -3 3 -9 -2 -12 -12z"/>
<path d="M4985 1600 c-3 -6 1 -7 9 -4 18 7 21 14 7 14 -6 0 -13 -4 -16 -10z"/>
<path d="M2073 1587 c0 -8 6 -14 14 -14 9 0 10 4 2 14 -6 7 -12 13 -14 13 -1
0 -2 -6 -2 -13z"/>
<path d="M2270 1596 c0 -2 8 -10 18 -17 15 -13 16 -12 3 4 -13 16 -21 21 -21
13z"/>
<path d="M2390 1591 c0 -5 5 -13 10 -16 6 -3 10 -2 10 4 0 5 -4 13 -10 16 -5
3 -10 2 -10 -4z"/>
<path d="M1810 1580 c0 -5 5 -10 11 -10 5 0 7 5 4 10 -3 6 -8 10 -11 10 -2 0
-4 -4 -4 -10z"/>
<path d="M1704 1558 l-19 -23 23 19 c21 18 27 26 19 26 -2 0 -12 -10 -23 -22z"/>
<path d="M2253 1565 c0 -8 4 -15 9 -15 4 0 8 4 8 9 0 6 -4 12 -8 15 -5 3 -9
-1 -9 -9z"/>
<path d="M2370 1566 c0 -2 7 -7 16 -10 8 -3 12 -2 9 4 -6 10 -25 14 -25 6z"/>
<path d="M4870 1560 c0 -5 5 -10 11 -10 5 0 7 5 4 10 -3 6 -8 10 -11 10 -2 0
-4 -4 -4 -10z"/>
<path d="M2350 1556 c0 -2 8 -10 18 -17 15 -13 16 -12 3 4 -13 16 -21 21 -21
13z"/>
<path d="M1810 1539 c0 -5 5 -7 10 -4 6 3 10 8 10 11 0 2 -4 4 -10 4 -5 0 -10
-5 -10 -11z"/>
<path d="M1850 1540 c0 -5 5 -10 11 -10 5 0 7 5 4 10 -3 6 -8 10 -11 10 -2 0
-4 -4 -4 -10z"/>
<path d="M2150 1536 c7 -7 13 -7 20 0 6 6 3 10 -10 10 -13 0 -16 -4 -10 -10z"/>
<path d="M2220 1546 c0 -2 8 -10 18 -17 15 -13 16 -12 3 4 -13 16 -21 21 -21
13z"/>
<path d="M2330 1536 c0 -2 8 -10 18 -17 15 -13 16 -12 3 4 -13 16 -21 21 -21
13z"/>
<path d="M2194 1516 c1 -8 5 -18 8 -22 4 -3 5 1 4 10 -1 8 -5 18 -8 22 -4 3
-5 -1 -4 -10z"/>
<path d="M2230 1498 c0 -4 4 -8 9 -8 6 0 12 4 15 8 3 5 -1 9 -9 9 -8 0 -15 -4
-15 -9z"/>
<path d="M2532 1500 c2 -9 -3 -14 -12 -12 -8 2 -12 0 -8 -4 4 -4 2 -14 -4 -23
-10 -12 -7 -12 8 2 11 9 23 14 27 11 3 -3 4 1 3 10 -1 8 -6 19 -10 23 -4 4 -6
1 -4 -7z"/>
<path d="M2574 1479 c0 -10 4 -15 9 -12 4 2 16 -1 25 -9 15 -12 16 -11 4 4 -8
9 -11 21 -9 25 3 5 -2 9 -12 9 -9 0 -17 -8 -17 -17z"/>
<path d="M1864 1482 c4 -3 14 -7 22 -8 9 -1 13 0 10 4 -4 3 -14 7 -22 8 -9 1
-13 0 -10 -4z"/>
<path d="M2270 1480 c0 -5 5 -10 11 -10 5 0 7 5 4 10 -3 6 -8 10 -11 10 -2 0
-4 -4 -4 -10z"/>
<path d="M2633 1465 c0 -8 10 -23 21 -32 l21 -18 -20 24 c-18 21 -18 24 -2 18
23 -8 22 0 -1 12 -14 8 -19 6 -19 -4z"/>
<path d="M1970 1459 c0 -5 5 -7 10 -4 6 3 10 8 10 11 0 2 -4 4 -10 4 -5 0 -10
-5 -10 -11z"/>
<path d="M2090 1459 c0 -5 5 -7 10 -4 6 3 10 8 10 11 0 2 -4 4 -10 4 -5 0 -10
-5 -10 -11z"/>
<path d="M2225 1460 c-3 -6 1 -7 9 -4 18 7 21 14 7 14 -6 0 -13 -4 -16 -10z"/>
<path d="M2433 1449 c-2 -23 3 -25 10 -4 4 8 3 16 -1 19 -4 3 -9 -4 -9 -15z"/>
<path d="M2467 1459 c7 -7 15 -10 18 -7 3 3 -2 9 -12 12 -14 6 -15 5 -6 -5z"/>
<path d="M2526 1445 c-18 -14 -18 -14 1 -12 11 0 20 7 20 14 0 7 -1 13 -1 13
-1 0 -9 -7 -20 -15z"/>
<path d="M2150 1436 c7 -7 13 -7 20 0 6 6 3 10 -10 10 -13 0 -16 -4 -10 -10z"/>
<path d="M2265 1440 c-3 -6 1 -7 9 -4 18 7 21 14 7 14 -6 0 -13 -4 -16 -10z"/>
<path d="M2573 1433 c0 -9 4 -10 14 -2 7 6 13 12 13 14 0 1 -6 2 -13 2 -8 0
-14 -6 -14 -14z"/>
<path d="M1835 1420 c3 -5 8 -10 11 -10 2 0 4 5 4 10 0 6 -5 10 -11 10 -5 0
-7 -4 -4 -10z"/>
<path d="M2395 1420 c3 -5 8 -10 11 -10 2 0 4 5 4 10 0 6 -5 10 -11 10 -5 0
-7 -4 -4 -10z"/>
<path d="M2629 1418 c11 -15 11 -21 0 -35 -12 -17 -12 -17 6 0 19 17 19 17 0
35 -18 16 -18 16 -6 0z"/>
<path d="M2693 1405 c0 -8 3 -13 5 -10 3 3 12 -1 21 -7 10 -8 9 -4 -3 10 -23
26 -23 26 -23 7z"/>
<path d="M2326 1398 c3 -5 10 -6 15 -3 13 9 11 12 -6 12 -8 0 -12 -4 -9 -9z"/>
<path d="M2490 1400 c0 -5 5 -10 10 -10 6 0 10 5 10 10 0 6 -4 10 -10 10 -5 0
-10 -4 -10 -10z"/>
<path d="M2595 1401 c-3 -5 -2 -12 3 -15 5 -3 9 1 9 9 0 17 -3 19 -12 6z"/>
<path d="M1926 1378 c3 -5 10 -6 15 -3 13 9 11 12 -6 12 -8 0 -12 -4 -9 -9z"/>
<path d="M2050 1379 c0 -5 5 -7 10 -4 6 3 10 8 10 11 0 2 -4 4 -10 4 -5 0 -10
-5 -10 -11z"/>
<path d="M2095 1380 c3 -5 8 -10 11 -10 2 0 4 5 4 10 0 6 -5 10 -11 10 -5 0
-7 -4 -4 -10z"/>
<path d="M2135 1380 c3 -5 8 -10 11 -10 2 0 4 5 4 10 0 6 -5 10 -11 10 -5 0
-7 -4 -4 -10z"/>
<path d="M2170 1379 c0 -5 5 -7 10 -4 6 3 10 8 10 11 0 2 -4 4 -10 4 -5 0 -10
-5 -10 -11z"/>
<path d="M2757 1368 c19 -21 31 -25 14 -5 -6 8 -9 16 -6 19 3 2 -2 5 -10 5
-13 0 -13 -3 2 -19z"/>
<path d="M2790 1375 c5 -7 6 -16 2 -21 -4 -5 -3 -6 2 -2 5 4 16 2 25 -4 12
-10 12 -7 -2 8 -9 11 -15 23 -12 26 3 2 -2 5 -10 5 -10 0 -12 -4 -5 -12z"/>
<path d="M2830 1383 c5 -2 8 -9 5 -13 -3 -5 -1 -11 4 -14 5 -4 8 2 7 11 -2 9
-8 18 -15 19 -6 1 -7 0 -1 -3z"/>
<path d="M2415 1369 c-4 -6 -5 -12 -2 -15 2 -3 7 2 10 11 7 17 1 20 -8 4z"/>
<path d="M2699 1367 c8 -9 16 -15 19 -12 3 3 12 -1 21 -8 14 -11 14 -10 2 6
-8 9 -16 15 -19 12 -3 -3 -12 1 -21 8 -14 11 -14 10 -2 -6z"/>
<path d="M2892 1371 c-11 -7 -11 -9 0 -14 9 -3 15 1 15 9 0 8 -1 14 -1 14 -1
0 -7 -4 -14 -9z"/>
<path d="M4995 1371 c-3 -5 -2 -12 3 -15 5 -3 9 1 9 9 0 17 -3 19 -12 6z"/>
<path d="M1785 1360 c-3 -6 1 -7 9 -4 18 7 21 14 7 14 -6 0 -13 -4 -16 -10z"/>
<path d="M1970 1360 c0 -5 5 -10 11 -10 5 0 7 5 4 10 -3 6 -8 10 -11 10 -2 0
-4 -4 -4 -10z"/>
<path d="M4910 1359 c0 -5 5 -7 10 -4 6 3 10 8 10 11 0 2 -4 4 -10 4 -5 0 -10
-5 -10 -11z"/>
<path d="M2170 1339 c0 -5 5 -7 10 -4 6 3 10 8 10 11 0 2 -4 4 -10 4 -5 0 -10
-5 -10 -11z"/>
<path d="M2210 1339 c0 -5 5 -7 10 -4 6 3 10 8 10 11 0 2 -4 4 -10 4 -5 0 -10
-5 -10 -11z"/>
<path d="M2295 1340 c3 -5 8 -10 11 -10 2 0 4 5 4 10 0 6 -5 10 -11 10 -5 0
-7 -4 -4 -10z"/>
<path d="M2590 1338 c0 -4 4 -8 9 -8 6 0 12 4 15 8 3 5 -1 9 -9 9 -8 0 -15 -4
-15 -9z"/>
<path d="M2870 1346 c0 -2 7 -7 16 -10 8 -3 12 -2 9 4 -6 10 -25 14 -25 6z"/>
<path d="M2434 1320 c0 -13 4 -16 10 -10 7 7 7 13 0 20 -6 6 -10 3 -10 -10z"/>
<path d="M2779 1328 c15 -21 31 -23 31 -6 0 6 -3 8 -7 5 -3 -4 -13 -1 -22 6
-14 11 -14 10 -2 -5z"/>
<path d="M2865 1320 c10 -11 20 -20 23 -20 3 0 -3 9 -13 20 -10 11 -20 20 -23
20 -3 0 3 -9 13 -20z"/>
<path d="M3036 1332 c-6 -10 0 -51 9 -61 3 -3 3 10 0 28 -5 30 -4 33 10 21 13
-11 18 -11 28 0 9 10 9 11 -1 6 -7 -4 -19 -3 -27 4 -7 6 -16 7 -19 2z"/>
<path d="M4483 1325 c0 -8 4 -12 9 -9 5 3 6 10 3 15 -9 13 -12 11 -12 -6z"/>
<path d="M2470 1320 c0 -5 5 -10 11 -10 5 0 7 5 4 10 -3 6 -8 10 -11 10 -2 0
-4 -4 -4 -10z"/>
<path d="M2635 1320 c-3 -5 -1 -10 4 -10 6 0 11 5 11 10 0 6 -2 10 -4 10 -3 0
-8 -4 -11 -10z"/>
<path d="M2714 1305 c0 -13 3 -22 7 -19 8 4 6 30 -2 38 -3 3 -5 -5 -5 -19z"/>
<path d="M2179 1308 c-5 -18 -6 -38 -1 -34 7 8 12 36 6 36 -2 0 -4 -1 -5 -2z"/>
<path d="M2746 1302 c-2 -4 4 -8 14 -8 10 0 16 4 14 8 -3 4 -9 8 -14 8 -5 0
-11 -4 -14 -8z"/>
<path d="M2917 1288 c19 -21 31 -25 14 -5 -6 8 -9 16 -6 19 3 2 -2 5 -10 5
-13 0 -13 -3 2 -19z"/>
<path d="M2630 1297 c0 -2 6 -10 14 -16 11 -9 16 -9 22 1 4 7 4 10 -1 6 -4 -4
-14 -3 -22 3 -7 6 -13 9 -13 6z"/>
<path d="M3146 1283 c-6 -14 -5 -15 5 -6 7 7 10 15 7 18 -3 3 -9 -2 -12 -12z"/>
<path d="M4755 1291 c-3 -5 -2 -12 3 -15 5 -3 9 1 9 9 0 17 -3 19 -12 6z"/>
<path d="M2580 1286 c0 -2 8 -10 18 -17 15 -13 16 -12 3 4 -13 16 -21 21 -21
13z"/>
<path d="M2871 1287 c2 -1 13 -9 24 -17 19 -14 19 -14 6 3 -7 9 -18 17 -24 17
-6 0 -8 -1 -6 -3z"/>
<path d="M2253 1255 c0 -8 4 -12 9 -9 5 3 6 10 3 15 -9 13 -12 11 -12 -6z"/>
<path d="M2830 1256 c7 -7 13 -7 20 0 6 6 3 10 -10 10 -13 0 -16 -4 -10 -10z"/>
<path d="M2988 1256 c12 -23 39 -30 39 -10 0 10 -4 11 -10 5 -7 -7 -15 -5 -24
7 -13 16 -14 15 -5 -2z"/>
<path d="M3065 1260 c-3 -6 1 -7 9 -4 18 7 21 14 7 14 -6 0 -13 -4 -16 -10z"/>
<path d="M3107 1253 c3 -7 6 -13 8 -13 2 0 5 6 8 13 3 8 -1 14 -8 14 -7 0 -11
-6 -8 -14z"/>
<path d="M2785 1240 c-3 -6 1 -7 9 -4 18 7 21 14 7 14 -6 0 -13 -4 -16 -10z"/>
<path d="M2895 1241 c-3 -5 -2 -12 3 -15 5 -3 9 1 9 9 0 17 -3 19 -12 6z"/>
<path d="M2960 1246 c0 -2 8 -10 18 -17 15 -13 16 -12 3 4 -13 16 -21 21 -21
13z"/>
<path d="M3155 1240 c-3 -5 -1 -10 4 -10 6 0 11 5 11 10 0 6 -2 10 -4 10 -3 0
-8 -4 -11 -10z"/>
<path d="M4586 1238 c3 -5 10 -6 15 -3 13 9 11 12 -6 12 -8 0 -12 -4 -9 -9z"/>
<path d="M2335 1219 c-3 -4 2 -6 10 -5 21 3 28 13 10 13 -9 0 -18 -4 -20 -8z"/>
<path d="M3196 1218 c3 -5 10 -6 15 -3 13 9 11 12 -6 12 -8 0 -12 -4 -9 -9z"/>
<path d="M2195 1211 c-3 -5 -2 -12 3 -15 5 -3 9 1 9 9 0 17 -3 19 -12 6z"/>
<path d="M3015 1210 c-3 -6 -20 -8 -38 -5 -17 4 -28 3 -24 -1 14 -14 74 -12
74 2 0 17 -4 18 -12 4z"/>
<path d="M3182 1204 c10 -10 20 -16 22 -13 3 3 -5 11 -17 18 -21 13 -21 12 -5
-5z"/>
<path d="M2820 1206 c0 -2 8 -10 18 -17 15 -13 16 -12 3 4 -13 16 -21 21 -21
13z"/>
<path d="M3071 1187 c-13 -21 -12 -21 5 -5 10 10 16 20 13 22 -3 3 -11 -5 -18
-17z"/>
<path d="M3225 1199 c-4 -6 -4 -13 -1 -16 3 -4 6 -1 6 6 0 7 5 9 12 5 7 -4 8
-3 4 4 -9 15 -13 15 -21 1z"/>
<path d="M3280 1206 c0 -2 8 -10 18 -17 15 -13 16 -12 3 4 -13 16 -21 21 -21
13z"/>
<path d="M3406 1197 c3 -10 9 -15 12 -12 3 3 0 11 -7 18 -10 9 -11 8 -5 -6z"/>
<path d="M4633 1195 c0 -8 4 -12 9 -9 5 3 6 10 3 15 -9 13 -12 11 -12 -6z"/>
<path d="M3152 1187 c-8 -10 -6 -13 7 -13 11 0 17 6 14 13 -3 7 -6 13 -8 13
-1 0 -7 -6 -13 -13z"/>
<path d="M2610 1180 c0 -5 5 -10 11 -10 5 0 7 5 4 10 -3 6 -8 10 -11 10 -2 0
-4 -4 -4 -10z"/>
<path d="M3430 1178 c0 -6 6 -8 14 -5 8 3 17 2 20 -4 2 -5 3 -4 2 2 -3 15 -36
21 -36 7z"/>
<path d="M3091 1167 c-8 -10 -7 -14 2 -14 8 0 14 6 14 14 0 7 -1 13 -2 13 -2
0 -8 -6 -14 -13z"/>
<path d="M3254 1166 c1 -8 5 -18 8 -22 4 -3 5 1 4 10 -1 8 -5 18 -8 22 -4 3
-5 -1 -4 -10z"/>
<path d="M3343 1164 c9 -11 15 -23 12 -26 -3 -2 2 -5 10 -5 10 0 12 4 5 12 -5
7 -6 16 -2 21 4 5 3 6 -2 2 -5 -4 -16 -2 -25 4 -12 10 -12 7 2 -8z"/>
<path d="M4395 1171 c-3 -5 -2 -12 3 -15 5 -3 9 1 9 9 0 17 -3 19 -12 6z"/>
<path d="M2273 1155 c0 -8 4 -12 9 -9 5 3 6 10 3 15 -9 13 -12 11 -12 -6z"/>
<path d="M2365 1160 c-3 -6 1 -7 9 -4 18 7 21 14 7 14 -6 0 -13 -4 -16 -10z"/>
<path d="M2750 1156 c7 -7 13 -7 20 0 6 6 3 10 -10 10 -13 0 -16 -4 -10 -10z"/>
<path d="M2900 1166 c0 -2 8 -10 18 -17 15 -13 16 -12 3 4 -13 16 -21 21 -21
13z"/>
<path d="M2970 1166 c0 -2 7 -7 16 -10 8 -3 12 -2 9 4 -6 10 -25 14 -25 6z"/>
<path d="M3296 1153 c-6 -14 -5 -15 5 -6 7 7 10 15 7 18 -3 3 -9 -2 -12 -12z"/>
<path d="M3384 1162 c4 -3 14 -7 22 -8 9 -1 13 0 10 4 -4 3 -14 7 -22 8 -9 1
-13 0 -10 -4z"/>
<path d="M2613 1145 c0 -8 4 -12 9 -9 5 3 6 10 3 15 -9 13 -12 11 -12 -6z"/>
<path d="M2654 1136 c1 -8 5 -18 8 -22 4 -3 5 1 4 10 -1 8 -5 18 -8 22 -4 3
-5 -1 -4 -10z"/>
<path d="M3153 1127 c-1 -11 -1 -18 0 -16 2 2 8 11 15 20 9 12 9 16 -1 16 -7
0 -14 -9 -14 -20z"/>
<path d="M3190 1146 c0 -2 7 -7 16 -10 8 -3 12 -2 9 4 -6 10 -25 14 -25 6z"/>
<path d="M3435 1123 c1 -16 -3 -35 -9 -43 -8 -12 -8 -13 4 -3 15 14 24 73 11
73 -4 0 -7 -12 -6 -27z"/>
<path d="M3230 1137 c0 -2 6 -10 14 -16 11 -9 16 -9 22 1 4 7 4 10 -1 6 -4 -4
-14 -3 -22 3 -7 6 -13 9 -13 6z"/>
<path d="M3315 1130 c-4 -6 -10 -8 -14 -6 -4 3 -8 -1 -8 -9 0 -10 4 -12 12 -5
7 5 16 6 20 2 5 -4 5 -2 2 5 -4 6 -1 14 5 16 9 4 10 6 1 6 -6 1 -15 -4 -18 -9z"/>
<path d="M2739 1128 c-5 -18 -6 -38 -1 -34 7 8 12 36 6 36 -2 0 -4 -1 -5 -2z"/>
<path d="M2855 1120 c-3 -5 -1 -10 4 -10 6 0 11 5 11 10 0 6 -2 10 -4 10 -3 0
-8 -4 -11 -10z"/>
<path d="M3086 1118 c3 -5 10 -6 15 -3 13 9 11 12 -6 12 -8 0 -12 -4 -9 -9z"/>
<path d="M3176 1113 c-6 -14 -5 -15 5 -6 7 7 10 15 7 18 -3 3 -9 -2 -12 -12z"/>
<path d="M3633 1089 c-2 -23 3 -25 10 -4 4 8 3 16 -1 19 -4 3 -9 -4 -9 -15z"/>
<path d="M3375 1091 c-3 -5 -2 -12 3 -15 5 -3 9 1 9 9 0 17 -3 19 -12 6z"/>
<path d="M3494 1080 c0 -13 4 -16 10 -10 7 7 7 13 0 20 -6 6 -10 3 -10 -10z"/>
<path d="M2666 1078 c3 -5 10 -6 15 -3 13 9 11 12 -6 12 -8 0 -12 -4 -9 -9z"/>
<path d="M3053 1071 c0 -11 5 -18 9 -15 4 3 5 11 1 19 -7 21 -12 19 -10 -4z"/>
<path d="M3553 1071 c0 -11 5 -18 9 -15 4 3 5 11 1 19 -7 21 -12 19 -10 -4z"/>
<path d="M3751 1074 c0 -11 3 -14 6 -6 3 7 2 16 -1 19 -3 4 -6 -2 -5 -13z"/>
<path d="M4319 1073 c-13 -16 -12 -17 4 -4 16 13 21 21 13 21 -2 0 -10 -8 -17
-17z"/>
<path d="M3250 1040 c0 -5 5 -10 11 -10 5 0 7 5 4 10 -3 6 -8 10 -11 10 -2 0
-4 -4 -4 -10z"/>
<path d="M3459 1048 c-5 -18 -6 -38 -1 -34 7 8 12 36 6 36 -2 0 -4 -1 -5 -2z"/>
<path d="M3746 1038 c3 -5 10 -6 15 -3 13 9 11 12 -6 12 -8 0 -12 -4 -9 -9z"/>
<path d="M3856 1023 c-6 -14 -5 -15 5 -6 7 7 10 15 7 18 -3 3 -9 -2 -12 -12z"/>
<path d="M3174 1016 c1 -8 5 -18 8 -22 4 -3 5 1 4 10 -1 8 -5 18 -8 22 -4 3
-5 -1 -4 -10z"/>
<path d="M3295 1021 c-3 -5 -2 -12 3 -15 5 -3 9 1 9 9 0 17 -3 19 -12 6z"/>
<path d="M3374 1022 c4 -3 14 -7 22 -8 9 -1 13 0 10 4 -4 3 -14 7 -22 8 -9 1
-13 0 -10 -4z"/>
<path d="M3636 1022 c-3 -5 1 -9 9 -9 8 0 12 4 9 9 -3 4 -7 8 -9 8 -2 0 -6 -4
-9 -8z"/>
<path d="M3690 1026 c0 -2 7 -7 16 -10 8 -3 12 -2 9 4 -6 10 -25 14 -25 6z"/>
<path d="M2986 1002 c-3 -5 1 -9 9 -9 8 0 12 4 9 9 -3 4 -7 8 -9 8 -2 0 -6 -4
-9 -8z"/>
<path d="M3556 807 c3 -10 9 -15 12 -12 3 3 0 11 -7 18 -10 9 -11 8 -5 -6z"/>
</g>
</svg>
